<svg width="64" height="64" viewBox="0 0 64 64" fill="none" xmlns="http://www.w3.org/2000/svg" role="img" aria-label="Creden">
  <!-- App icon: fundo arredondado verde + ticket compacto com check -->
  <rect width="64" height="64" rx="15" fill="#0E5C56"/>
  <!-- Mini ticket -->
  <path
    d="M16 19 H48 a4 4 0 0 1 4 4 V28 a3.4 3.4 0 0 0 0 8 V41 a4 4 0 0 1 -4 4 H16 a4 4 0 0 1 -4 -4 V36 a3.4 3.4 0 0 0 0 -8 V23 a4 4 0 0 1 4 -4 Z"
    fill="#F4F1EA"/>
  <!-- Check -->
  <path d="M22 32 L29 39 L43 24" stroke="#0E5C56" stroke-width="5" stroke-linecap="round" stroke-linejoin="round" fill="none"/>
</svg>
